<svg xmlns="http://www.w3.org/2000/svg" width="32" height="32" viewBox="0 0 1024 1024" preserveAspectRatio="xMidYMid meet">
  <g fill="none">
    <path d="M534.50 883 c10.75 -0.65 19.90 -1.60 31.80 -3.30 14.50 -2.05 31.25 -5.50 44.95 -9.25 1.95 -0.55 4.30 -1.20 5.25 -1.45 3.40 -0.90 15.85 -4.95 21.50 -7 3.15 -1.15 6.30 -2.25 7 -2.50 2.05 -0.65 14.45 -5.75 18.15 -7.45 1.85 -0.85 3.50 -1.55 3.65 -1.55 0.50 0 23.80 -11.80 26.60 -13.45 1.45 -0.85 2.75 -1.55 2.85 -1.55 0.15 0 3.65 -2.05 7.80 -4.55 16.40 -9.80 33.45 -21.90 47.45 -33.70 2.60 -2.15 5 -4.20 5.35 -4.50 0.30 -0.25 2.35 -2.05 4.55 -4 5.15 -4.50 23.25 -22.65 28.35 -28.50 2.20 -2.45 4.10 -4.60 4.25 -4.75 2.05 -2.05 13.40 -16.20 16.90 -21.10 1.60 -2.20 3.90 -5.50 5.20 -7.30 6.80 -9.55 10.90 -16.05 22.20 -35.10 1.15 -2 12.35 -24.55 13.40 -27 0.55 -1.25 1.35 -3.15 1.85 -4.25 1.55 -3.55 2.35 -5.45 3.45 -8.25 0.60 -1.50 1.40 -3.40 1.75 -4.25 1.95 -4.50 8.25 -22.65 10.75 -31.25 0.60 -2.05 1.30 -4.30 1.55 -5 0.75 -2.25 5.35 -21.65 6.40 -27 1.90 -9.50 2 -10.20 2.80 -15.75 4.85 -33.55 5.50 -64.70 2 -98 -6.75 -64.60 -31.75 -128.30 -71.15 -181.25 -23.55 -31.65 -51.50 -58.80 -84.35 -81.85 -20 -14.05 -46.60 -28.75 -70 -38.70 -28.05 -11.90 -56.15 -19.85 -89.50 -25.40 -13.50 -2.25 -42.10 -4.55 -55.80 -4.55 -13.95 0.05 -40.65 2.05 -52.70 3.95 -1.65 0.25 -4.65 0.70 -6.65 1 -3.75 0.55 -14.80 2.70 -18.35 3.55 -1.10 0.25 -4.90 1.15 -8.50 2 -3.55 0.85 -6.95 1.65 -7.50 1.80 -0.55 0.15 -2.55 0.70 -4.50 1.20 -1.90 0.50 -5 1.40 -6.85 1.95 -1.90 0.60 -4.80 1.50 -6.50 2 -10.05 3.05 -27.70 9.65 -35.80 13.35 -1.45 0.65 -2.70 1.20 -2.80 1.20 -0.65 0 -24.45 11.65 -25.55 12.45 -0.25 0.25 -2.75 1.60 -5.50 3.05 -7 3.70 -21.60 12.60 -28.40 17.35 -26.55 18.35 -48.90 38 -69.35 60.90 -4 4.50 -7.25 8.45 -16.95 20.75 -7.05 8.95 -20.90 29.95 -27.80 42.25 -4.75 8.35 -13.70 26.05 -16.85 33.25 -11.45 25.95 -19.80 52.90 -24.90 80.50 -2.45 13.15 -4.05 25.20 -5 37.50 -2.05 26.95 -2.05 38.40 0 63.50 1.25 15.30 4.20 35.55 7 47.75 0.25 1.10 0.65 3 0.95 4.25 4.65 20.60 12.65 45.20 20.05 61.75 0.50 1.10 1.60 3.70 2.50 5.75 4.15 9.60 12.85 26.05 20.15 38.25 4.35 7.25 17.20 26.65 18.35 27.75 0.15 0.15 1.30 1.70 2.60 3.50 2 2.85 14.60 18.85 15.35 19.50 0.15 0.15 1.75 1.95 3.55 4 5.65 6.55 8 9.05 18 19.05 10.90 10.90 15.05 14.75 25.25 23.20 44.50 37.10 99.40 64.20 155.60 76.75 19.10 4.30 36.35 6.85 54.85 8.20 11.10 0.80 38.15 1 49.30 0.30z"/>
    <path d="M497.50 848.95 c-14.25 -0.45 -27.55 -1.65 -39.50 -3.50 -7.55 -1.15 -9.05 -1.40 -15.25 -2.70 -20.55 -4.15 -43.50 -11.15 -61.75 -18.85 -40.30 -16.95 -73.45 -38.75 -104.25 -68.50 -28.65 -27.65 -51 -58.30 -68.20 -93.65 -4.25 -8.65 -6.10 -12.80 -11.05 -24.75 -3.80 -9.05 -8.25 -22.90 -12.20 -37.75 -3.50 -13.20 -6.90 -31.75 -8.30 -45.50 -0.30 -3 -0.75 -7.50 -1 -10 -2.25 -21.75 -1.40 -57.55 2 -80.50 0.25 -1.65 0.70 -4.80 1 -7 0.30 -2.20 0.75 -5 1 -6.25 0.25 -1.25 0.70 -3.70 1 -5.50 0.30 -1.80 0.75 -4.15 1 -5.25 0.25 -1.10 0.70 -3.10 1 -4.50 0.55 -2.50 3.70 -15.20 4.50 -18 2.75 -9.90 6.75 -21.95 10.50 -31.50 0.60 -1.60 5.55 -13.30 6.60 -15.75 10.70 -24.25 26.45 -49.85 44.10 -71.75 11.85 -14.70 26.80 -30.20 40.80 -42.30 15.25 -13.15 35.50 -27.45 52 -36.70 2.05 -1.15 4.65 -2.60 5.75 -3.25 5.80 -3.30 24 -12.05 30.25 -14.50 1.50 -0.60 3.45 -1.40 4.25 -1.75 9.35 -4.15 31.75 -11.40 45.25 -14.65 9.45 -2.30 11.45 -2.75 16.50 -3.65 16.30 -3 30.65 -4.85 46.25 -5.95 17.70 -1.25 50.80 -0.15 68.30 2.25 22.65 3.20 40.80 7.35 61.70 14.10 5.45 1.80 19.10 6.75 21 7.65 0.55 0.25 3.50 1.50 6.50 2.80 5.60 2.35 21.10 9.55 22 10.20 0.30 0.20 2.85 1.55 5.75 3.05 20 10.20 47.40 29.45 66.70 46.90 56.40 50.85 94.60 123.45 104.75 199.05 2.55 19.05 3.20 29.35 3.20 50.50 -0.05 19.10 -0.50 27.55 -2.70 46 -1.50 12.75 -5.05 30.55 -9.15 45.50 -3.30 12.15 -9.55 30.85 -12.30 36.85 -0.55 1.20 -1 2.35 -1 2.60 0 0.20 -0.70 1.95 -1.55 3.85 -0.80 1.90 -1.80 4.15 -2.20 4.95 -0.35 0.85 -1.15 2.65 -1.75 4 -12.25 27.55 -31.75 57.60 -53.20 82 -4.30 4.90 -24.50 25.25 -27.70 27.95 -1.30 1.05 -3.60 3.05 -5.10 4.35 -11.45 10.10 -28.20 22.20 -42.75 30.90 -7.10 4.25 -7.75 4.65 -15.25 8.80 -7.30 4 -21.15 10.60 -28 13.35 -2.05 0.80 -4.40 1.80 -5.25 2.15 -6 2.60 -17.60 6.70 -29 10.20 -21.40 6.55 -43.45 10.60 -70.50 13.05 -6.25 0.55 -28.70 1.55 -31.75 1.40 -0.95 0 -6.80 -0.25 -13 -0.45z m24.75 -74.95 c1.90 -1.90 3.75 -3.50 4.05 -3.50 0.30 0 6.50 -6 13.75 -13.30 7.25 -7.30 14.55 -14.30 16.20 -15.60 1.65 -1.25 18.60 -17.80 37.65 -36.80 l34.60 -34.55 0 -57.60 c0 -31.70 -0.15 -57.65 -0.30 -57.65 -0.90 0 -9.40 8.15 -34.90 33.50 -51.70 51.40 -67.55 67.25 -70.30 70.50 -1.50 1.80 -3.95 4.55 -5.45 6.15 -2.35 2.40 -3.05 2.85 -4.55 2.85 -1.65 0 -5.65 -3.90 -81.50 -79.80 -48.95 -49.05 -80.40 -80.10 -81.35 -80.55 -1.50 -0.60 -1.65 -0.85 -1.65 -2.80 l0 -2.15 79.90 -79.70 c43.90 -43.85 80.90 -80.60 82.15 -81.60 4.50 -3.70 1.75 -5.90 36.10 28.70 l30.40 30.65 5.60 -5.85 c3.10 -3.25 5.85 -5.90 6.15 -5.90 0.40 0 11.45 -11.10 15.60 -15.70 0.45 -0.55 5.70 -5.60 11.60 -11.30 l10.75 -10.35 -51.80 -51.70 c-49.85 -49.75 -59 -58.75 -62.15 -61.40 l-1.45 -1.25 -38.55 38.75 c-21.20 21.30 -81.15 81.25 -133.15 133.20 -52.05 52 -94.65 94.65 -94.65 94.80 0 0.20 1.85 2 4.15 4 2.25 2.05 6.70 6.40 9.85 9.70 5.90 6.15 41.15 41.60 133 133.70 29 29.10 59.70 60 68.20 68.60 27.40 27.80 48 48.45 48.35 48.45 0.25 0 3.35 2.85 8.70 8 0.55 0.55 1.10 1 1.25 1 0.15 0 1.85 -1.55 3.75 -3.50z m151.20 -140.05 c2.35 -2.50 6 -5.95 8.05 -7.70 2.05 -1.70 16.50 -15.80 32.15 -31.35 l28.35 -28.25 0 -62.60 0 -62.55 -109.55 0 -109.55 0 -28.55 28.80 c-15.75 15.85 -28.65 28.95 -28.75 29.15 -0.15 0.45 48.25 48.80 48.90 48.80 0.25 0 7.90 -7.40 16.90 -16.40 l16.45 -16.40 57.20 -0.20 c31.45 -0.10 58.65 -0.25 60.40 -0.35 l3.20 -0.15 -0.10 27.75 c-0.40 75.40 -0.35 96 0.30 96 0.15 0 2.20 -2.05 4.60 -4.55z"/>
  </g>
  <g fill="#e38a1c">
    <path d="M483.55 884.20 c-8.50 -0.60 -28.25 -2.85 -30.95 -3.55 -0.70 -0.15 -1.10 -0.60 -1 -1.10 0.20 -0.90 4.40 -1.50 4.40 -0.60 0 0.30 0.70 0.55 1.50 0.55 0.85 0 1.50 -0.20 1.50 -0.50 0 -0.25 0.40 -0.50 0.95 -0.50 0.80 0 0.90 -0.30 0.65 -2.25 -0.20 -2.20 -0.20 -2.25 1.35 -2.55 1 -0.20 1.55 -0.60 1.55 -1.15 0 -0.45 0.25 -1.10 0.55 -1.40 0.40 -0.40 0.40 -0.65 0 -0.85 -0.70 -0.45 -0.75 -3.80 -0.05 -3.80 0.30 0 0.50 -0.90 0.50 -2 0 -1.10 0.25 -2 0.50 -2 0.30 0 0.50 -0.40 0.50 -0.95 0 -0.50 0.45 -1.05 1 -1.20 0.75 -0.20 1 -0.70 1 -2.05 0 -1 -0.20 -1.80 -0.50 -1.80 -0.75 0 -0.60 -3.35 0.15 -3.65 0.45 -0.20 0.45 -0.30 0 -0.30 -0.85 -0.05 -0.85 -3.85 -0.05 -4.35 0.85 -0.55 -0.90 -1.10 -3.35 -1.15 -3.30 -0.10 -4.25 -0.50 -4.25 -1.90 0 -1.15 0.15 -1.25 1.40 -1 1.90 0.40 13.10 1.70 19.85 2.35 3.05 0.25 10 0.60 15.50 0.75 5.50 0.15 11.35 0.35 13 0.45 3.90 0.25 23.80 -0.55 31.50 -1.20 27.05 -2.45 49.10 -6.50 70.50 -13.05 11.40 -3.50 23 -7.60 29 -10.20 0.85 -0.35 3.20 -1.35 5.25 -2.15 6.85 -2.75 20.70 -9.35 28 -13.35 7.50 -4.15 8.15 -4.55 15.25 -8.80 14.55 -8.70 31.30 -20.80 42.75 -30.90 1.50 -1.30 3.80 -3.30 5.10 -4.35 3.20 -2.70 23.40 -23.05 27.70 -27.95 21.45 -24.40 40.95 -54.45 53.20 -82 0.60 -1.35 1.40 -3.15 1.75 -4 0.40 -0.80 1.40 -3.05 2.20 -4.95 0.85 -1.90 1.55 -3.65 1.55 -3.85 0 -0.25 0.45 -1.40 1 -2.60 4.80 -10.50 13.20 -38.05 16.95 -55.85 3.35 -15.90 5.05 -28.30 6.60 -47.75 0.75 -9.15 0.75 -37.40 0 -47.25 -2.50 -34.35 -8.80 -64.05 -19.90 -94 -3.35 -9.10 -7.85 -19.90 -9.95 -24.10 -0.70 -1.35 -1.45 -3 -1.70 -3.70 -0.45 -1.10 -0.35 -1.20 1 -1.20 1.30 0 1.50 0.20 1.50 1.40 0 0.80 0.40 1.70 1 2.10 0.65 0.45 1 1.30 1 2.35 0 0.90 0.25 1.65 0.50 1.65 0.30 0 0.50 0.40 0.50 0.95 0 0.75 0.50 0.95 2.75 1.20 3.85 0.40 5.25 -0.35 5.25 -2.75 0 -1.40 0.20 -1.90 0.80 -1.90 0.45 0 0.90 -0.45 1.05 -1 0.15 -0.55 0.45 -1 0.70 -1 0.25 0 0.45 -0.60 0.45 -1.30 0 -0.75 0.55 -1.85 1.35 -2.60 1.20 -1.15 1.40 -1.75 1.40 -4.10 0 -2.60 1.05 -6 1.85 -6 0.25 0 0.40 -0.45 0.40 -1 0 -0.55 0.25 -1 0.50 -1 0.30 0 0.50 -0.30 0.50 -0.65 0 -1.25 1.25 -3.35 2.15 -3.65 1.20 -0.35 0.80 -1.40 -0.55 -1.60 -0.90 -0.15 -1.10 -0.50 -1.10 -2.15 0 -1.40 0.20 -1.95 0.75 -1.95 0.45 0 0.75 -0.45 0.75 -1.15 0 -0.65 0.25 -1.40 0.60 -1.75 0.45 -0.45 0.45 -0.60 0 -0.60 -0.35 0 -0.60 -0.35 -0.60 -0.75 0 -0.40 -0.20 -0.75 -0.50 -0.75 -0.25 0 -0.50 -0.45 -0.50 -1 0 -0.55 -0.20 -1 -0.50 -1 -0.25 0 -0.50 -0.45 -0.50 -1 0 -0.55 -0.20 -1 -0.50 -1 -0.25 0 -0.50 -0.45 -0.50 -1 0 -0.55 -0.20 -1 -0.50 -1 -0.25 0 -0.50 -0.55 -0.50 -1.25 0 -0.70 -0.20 -1.25 -0.50 -1.25 -0.25 0 -0.50 -0.80 -0.50 -1.75 0 -0.95 0.20 -1.75 0.40 -1.75 0.55 0 6.70 11.15 11.30 20.40 19.40 38.95 32.10 82.30 36.55 124.85 3.55 33.80 2.90 67.25 -2 101 -0.80 5.55 -0.90 6.25 -2.80 15.75 -1.05 5.35 -5.65 24.75 -6.40 27 -0.25 0.70 -0.95 2.95 -1.55 5 -2.50 8.60 -8.80 26.75 -10.75 31.25 -0.35 0.85 -1.15 2.75 -1.75 4.25 -1.10 2.80 -1.90 4.70 -3.45 8.25 -0.50 1.10 -1.30 3 -1.85 4.25 -1.05 2.45 -12.25 25 -13.40 27 -11.30 19.05 -15.40 25.55 -22.20 35.10 -1.30 1.80 -3.60 5.10 -5.20 7.30 -3.50 4.90 -14.85 19.05 -16.90 21.10 -0.15 0.15 -2.05 2.30 -4.25 4.75 -5.10 5.85 -23.20 24 -28.35 28.50 -2.20 1.95 -4.25 3.75 -4.55 4 -7.05 6.20 -19.15 15.75 -28.10 22.05 -10.30 7.30 -31.35 20.70 -32.50 20.70 -0.10 0 -1.40 0.70 -2.85 1.55 -2.80 1.65 -26.10 13.45 -26.60 13.45 -0.15 0 -1.80 0.70 -3.65 1.55 -3.70 1.70 -16.10 6.80 -18.15 7.45 -0.70 0.25 -3.85 1.35 -7 2.50 -5.65 2.05 -18.10 6.10 -21.50 7 -0.95 0.25 -3.30 0.90 -5.25 1.45 -7.55 2.05 -16.65 4.20 -26.25 6.10 -14.90 3 -34.15 5.45 -50.50 6.45 -11.30 0.70 -41.25 0.50 -52.45 -0.30z"/>
    <path d="M516.80 778.90 c-0.75 -0.90 -2.05 -2 -2.85 -2.50 l-1.45 -0.90 -0.10 -53.30 c-0.10 -42.15 -0.30 -53.40 -0.75 -53.60 -0.35 -0.10 -0.65 -1 -0.65 -1.95 0 -1.80 0 -1.80 1 -0.90 1 0.90 1.05 0.90 2.80 -0.80 1 -0.95 3.45 -3.65 5.50 -6.05 2.05 -2.40 12.65 -13.30 23.65 -24.25 51.80 -51.70 76.10 -75.70 79.55 -78.60 5.85 -4.95 6 -5.05 6.25 -5.05 0.15 0 0.25 27.15 0.25 60.40 l0 60.35 -34.60 34.55 c-19.05 19 -36 35.55 -37.65 36.80 -1.65 1.30 -8.95 8.30 -16.20 15.60 -7.25 7.30 -13.45 13.30 -13.75 13.30 -0.30 0 -2.45 1.90 -4.80 4.25 -2.35 2.35 -4.35 4.25 -4.50 4.25 -0.15 0 -0.90 -0.75 -1.70 -1.60z"/>
    <path d="M666.85 634.65 c-0.30 -10.65 0.10 -115.45 0.50 -116.40 0.15 -0.40 0.10 -1.10 -0.05 -1.55 -0.25 -0.65 -0.65 -0.75 -1.95 -0.40 -0.85 0.20 -27.35 0.45 -58.85 0.55 l-57.20 0.15 -17.40 17.35 -17.40 17.40 -25.85 -25.85 c-14.25 -14.20 -25.90 -26.05 -25.90 -26.30 0 -0.30 13.20 -13.80 29.35 -30.05 l29.30 -29.55 111.05 0 111.05 0 0 64.05 0 64.10 -28.35 28.25 c-15.65 15.55 -29.75 29.35 -31.40 30.70 -1.65 1.35 -5.95 5.50 -9.60 9.20 -3.60 3.70 -6.65 6.70 -6.80 6.70 -0.10 0 -0.35 -3.75 -0.50 -8.35z"/>
    <path d="M832.50 321.70 c0 -2.15 0.85 -2.10 2.15 0.20 l0.95 1.60 -1.55 0 c-1.45 0 -1.55 -0.10 -1.55 -1.80z"/>
    <path d="M829.50 316.75 c0 -1.10 0.25 -1.75 0.65 -1.75 0.35 0 1.05 0.80 1.50 1.75 l0.85 1.75 -1.50 0 c-1.40 0 -1.50 -0.15 -1.50 -1.75z"/>
  </g>
  <g fill="#a61a99">
    <path d="M455.75 881.10 c-1.35 -0.10 -2.20 -0.30 -1.90 -0.50 0.30 -0.20 -0.70 -0.40 -2.30 -0.40 -3.90 -0.10 -22.20 -3.80 -33.30 -6.70 -26.55 -7 -49.30 -15.60 -73.50 -27.70 -21.60 -10.80 -37.45 -20.55 -56 -34.35 -15.70 -11.70 -26.15 -20.80 -40.75 -35.40 -10 -10 -12.35 -12.50 -18 -19.05 -1.80 -2.05 -3.40 -3.85 -3.55 -4 -0.75 -0.65 -13.35 -16.65 -15.35 -19.50 -1.30 -1.80 -2.45 -3.35 -2.60 -3.50 -1.15 -1.10 -14 -20.50 -18.35 -27.75 -7.30 -12.20 -16 -28.65 -20.15 -38.25 -0.90 -2.05 -2 -4.65 -2.50 -5.75 -7.35 -16.40 -15.80 -42.40 -20 -61.50 -0.25 -1.10 -0.65 -3 -0.95 -4.25 -2.75 -11.75 -5.75 -32.50 -7.05 -48 -2.05 -25.40 -2.05 -39.25 0 -66.50 0.95 -12.40 2.70 -25.40 5.05 -37.75 0.25 -1.35 0.70 -3.75 1 -5.25 4.05 -21.15 12.85 -49.65 21.55 -69.75 2.70 -6.25 3 -6.85 7.95 -17 8.75 -18 15.10 -29 26.10 -45.50 4.20 -6.25 10.55 -15.25 12.90 -18.25 9.70 -12.30 12.95 -16.25 16.95 -20.75 20.45 -22.90 42.80 -42.55 69.35 -60.90 6.80 -4.75 21.40 -13.65 28.40 -17.35 2.75 -1.45 5.25 -2.80 5.50 -3.05 1.10 -0.80 24.90 -12.45 25.55 -12.45 0.10 0 1.35 -0.55 2.80 -1.20 8.10 -3.70 25.75 -10.30 35.80 -13.35 1.70 -0.50 4.60 -1.40 6.50 -2 1.85 -0.55 4.95 -1.45 6.85 -1.95 1.95 -0.50 3.95 -1.05 4.50 -1.20 0.55 -0.15 3.95 -0.95 7.50 -1.80 3.60 -0.85 7.40 -1.75 8.50 -2 3.55 -0.85 14.60 -3 18.35 -3.55 2 -0.30 5 -0.75 6.65 -1 12.60 -2 38.90 -3.90 54.20 -3.95 15.20 0 43.15 2.20 57.30 4.55 33.35 5.55 61.45 13.50 89.50 25.40 23.40 9.95 50 24.65 70 38.70 32.95 23.15 60.85 50.25 84.55 82.10 7.85 10.60 18.35 26.40 18.35 27.60 0 0.35 0.15 0.65 0.35 0.65 0.35 0 2.60 3.80 2.50 4.30 -0.05 0.20 0.15 0.50 0.40 0.65 0.55 0.35 3.60 5.35 3.75 6.20 0.05 0.30 0.50 1 1 1.55 0.80 0.90 1.10 1.90 0.90 2.95 -0.05 0.25 0.15 0.30 0.45 0.10 0.50 -0.30 0.70 0.35 0.55 1.70 -0.10 0.35 0.10 0.50 0.40 0.30 0.50 -0.25 0.75 0.35 0.60 1.40 0 0.20 0.15 0.35 0.45 0.35 0.25 0 0.50 0.45 0.50 1 0 0.55 0.25 1 0.55 1 0.25 0 0.40 0.20 0.20 0.45 -0.15 0.30 0.25 1 0.85 1.60 0.65 0.60 0.90 0.95 0.55 0.75 -0.35 -0.15 -0.70 0.10 -0.90 0.70 -0.35 1.15 -1 1.30 -1.45 0.40 -0.25 -0.50 -0.35 -0.50 -0.60 0 -0.15 0.30 -0.60 0.60 -1 0.60 -0.40 0 -0.70 0.15 -0.70 0.40 0 0.55 4.20 0.50 4.65 -0.10 0.25 -0.30 0.25 0 0.10 0.65 -0.30 1 -0.20 1.15 0.60 0.95 0.60 -0.15 0.95 0 0.95 0.55 0.05 0.45 0.20 1.25 0.40 1.80 0.20 0.55 0 0.35 -0.45 -0.40 -0.45 -0.75 -1 -1.25 -1.25 -1.10 -0.30 0.20 -0.50 0.05 -0.50 -0.30 0 -0.40 -0.35 -0.25 -1 0.30 -0.75 0.65 -0.85 1.10 -0.50 1.80 0.70 1.30 0.60 1.60 -0.45 1.30 -1.10 -0.25 -1.60 0 -2.40 1.50 -0.80 1.35 -0.85 2.65 -0.15 2.65 0.30 0 0.50 0.25 0.50 0.55 0 0.40 -0.25 0.35 -0.75 -0.05 -0.45 -0.35 -0.95 -0.45 -1.15 -0.25 -0.20 0.20 -0.05 0.50 0.30 0.60 0.30 0.15 0.60 0.70 0.60 1.25 0 0.85 -0.10 0.90 -0.75 0.40 -0.45 -0.35 -0.95 -0.45 -1.15 -0.25 -0.20 0.20 -0.05 0.50 0.30 0.60 0.30 0.15 0.60 0.45 0.60 0.75 0 0.30 -0.35 0.40 -0.75 0.25 -1.30 -0.55 -1.45 0.80 -0.20 1.80 0.80 0.65 1 1.05 0.60 1.20 -0.35 0.15 -0.65 0.65 -0.65 1.20 0 0.50 -0.20 0.95 -0.50 0.95 -0.25 0 -0.50 0.45 -0.50 0.95 0 0.55 -0.30 1.10 -0.60 1.20 -0.40 0.20 -0.15 0.45 0.55 0.65 1.15 0.35 1.15 0.40 0.25 0.70 -0.50 0.20 -1.10 0.15 -1.30 -0.15 -0.20 -0.30 -0.65 -0.20 -1.20 0.35 -0.70 0.75 -0.75 0.95 -0.15 1.30 0.55 0.35 0.50 0.60 -0.35 1.35 -0.55 0.50 -1.15 1.30 -1.35 1.80 -0.15 0.45 -0.65 0.85 -1.10 0.85 -0.40 0 -0.75 0.25 -0.75 0.55 0 0.30 0.35 0.45 0.75 0.30 0.40 -0.20 0.85 -0.10 1 0.20 0.20 0.25 -0.05 0.60 -0.45 0.75 -1.05 0.40 -1 1.05 0.10 1.35 0.75 0.20 0.70 0.30 -0.20 0.60 -1.35 0.45 -2.75 2.80 -1.80 3.10 0.30 0.15 0.60 0.45 0.60 0.70 0 0.25 -0.40 0.20 -0.95 -0.15 -0.75 -0.45 -1.20 -0.35 -2.50 0.55 -0.85 0.60 -1.55 1.35 -1.55 1.60 0 0.65 0.90 0.55 1.10 -0.15 0.10 -0.30 0.45 -0.40 0.80 -0.20 0.40 0.25 0.25 0.75 -0.65 1.70 -0.90 0.95 -1.05 1.40 -0.60 1.70 0.40 0.25 0.20 0.40 -0.50 0.40 -0.65 0 -1.15 -0.30 -1.15 -0.60 0 -0.45 -0.20 -0.40 -0.55 0.10 -0.45 0.65 -0.50 0.60 -0.25 -0.15 0.30 -1 -0.15 -2.45 -0.70 -2.10 -0.25 0.15 -0.30 -0.25 -0.15 -0.85 0.15 -0.80 0.10 -0.95 -0.20 -0.50 -0.35 0.45 -0.60 0.30 -1.05 -0.65 -0.75 -1.60 -0.75 -1.90 -0.10 -1.50 0.30 0.15 0.50 0.05 0.50 -0.20 0 -0.30 -0.30 -0.55 -0.65 -0.55 -0.85 0 -3.45 -5.90 -3 -6.70 0.15 -0.30 0.10 -0.40 -0.10 -0.15 -0.55 0.45 -2.30 -3.20 -1.90 -3.90 0.20 -0.25 0.15 -0.35 -0.05 -0.15 -0.25 0.20 -1.65 -2.15 -3.15 -5.20 -3.50 -7.20 -7.70 -14.80 -13.30 -24.15 -27.75 -46.25 -65.75 -83.95 -113.35 -112.55 -4.55 -2.75 -10.60 -6.20 -13.50 -7.65 -2.90 -1.50 -5.45 -2.85 -5.75 -3.05 -0.90 -0.65 -16.40 -7.85 -22 -10.20 -3 -1.30 -5.95 -2.55 -6.50 -2.80 -1.90 -0.90 -15.55 -5.85 -21 -7.65 -20.90 -6.75 -39.05 -10.90 -61.70 -14.10 -17.35 -2.40 -48.25 -3.45 -65.30 -2.25 -15.60 1.10 -29.95 2.95 -46.25 5.95 -5.05 0.90 -7.05 1.35 -16.50 3.65 -13.50 3.25 -35.90 10.50 -45.25 14.65 -0.80 0.35 -2.75 1.15 -4.25 1.75 -2.85 1.10 -3.95 1.60 -9.50 4.15 -4.40 2 -18.30 8.95 -20.75 10.35 -1.10 0.65 -3.70 2.10 -5.75 3.25 -19.25 10.80 -41.75 27.15 -58.75 42.70 -8.10 7.40 -21.60 21.40 -28.95 30.05 -10 11.75 -23.15 30.05 -30.90 43 -6.10 10.20 -14.05 25.45 -18.30 35 -1.05 2.45 -6 14.15 -6.60 15.75 -3.75 9.55 -7.75 21.60 -10.50 31.50 -0.80 2.80 -3.95 15.50 -4.50 18 -0.30 1.40 -0.75 3.40 -1 4.50 -0.25 1.10 -0.70 3.45 -1 5.25 -0.30 1.80 -0.75 4.25 -1 5.50 -0.25 1.25 -0.70 4.05 -1 6.25 -0.30 2.20 -0.75 5.35 -1 7 -3.35 22.85 -4.20 55.35 -2 77.75 2.15 21.55 3.60 30.80 7.55 48 3.35 14.60 9.30 33.90 13.95 45 4.95 11.95 6.80 16.10 11.05 24.75 12.65 26 29.25 51.15 47.15 71.50 36.10 41.05 75.80 69.80 125.30 90.65 18.95 7.95 42.10 15 63 19.05 11.60 2.30 13.20 2.55 14.70 2.55 0.75 0 1.25 0.20 1.05 0.45 -0.15 0.30 0.50 0.40 1.60 0.30 1.65 -0.20 1.75 -0.15 0.65 0.25 -0.95 0.35 -0.45 0.45 1.95 0.30 2.25 -0.15 3 -0.05 2.50 0.30 -0.50 0.35 0.05 0.40 1.80 0.20 1.65 -0.15 2.15 -0.10 1.50 0.20 -0.90 0.40 -0.90 0.45 0.30 0.45 0.70 0.05 1.75 0.50 2.35 1.05 1.30 1.25 1.30 1.30 0.40 1.65 -0.50 0.20 -0.65 0.05 -0.50 -0.35 0.40 -1.10 -0.50 -1.30 -2 -0.50 -0.80 0.35 -1.70 0.70 -2.05 0.70 -0.80 0 -2 1.40 -1.55 1.85 0.20 0.20 0.55 0.05 0.80 -0.35 0.75 -1.25 1.15 -0.15 0.55 1.55 -0.45 1.25 -0.40 1.75 0.05 2.05 0.50 0.30 0.50 0.50 -0.10 0.95 -0.55 0.40 -0.60 0.60 -0.10 0.80 0.70 0.30 0.80 2.15 0.10 2.15 -0.25 0 -0.50 0.80 -0.50 1.75 0 1.40 -0.25 1.90 -1.10 2.25 l-1.15 0.45 1.15 0.35 c1.10 0.30 1.55 1.20 0.60 1.20 -0.25 0 -0.50 0.70 -0.50 1.50 0 1.05 -0.25 1.50 -0.80 1.50 -1.05 0 -2.35 1.35 -1.70 1.75 0.25 0.15 0.50 0.75 0.50 1.25 0 0.50 0.30 1 0.65 1.15 0.40 0.15 0.25 0.50 -0.50 1.10 -0.75 0.50 -1.15 1.35 -1.15 2.30 0 1.55 -0.45 1.80 -1.40 0.85 -0.45 -0.45 -0.60 -0.45 -0.60 0.05 0 0.35 -0.20 0.45 -0.50 0.30 -0.30 -0.15 -0.35 0.05 -0.20 0.45 0.15 0.45 0.50 0.80 0.80 0.80 0.45 0 2.90 2.25 2.90 2.70 0 0.15 -0.60 0.30 -1.35 0.40 -0.80 0.10 -1.35 0.40 -1.30 0.65 0.05 0.50 -2.90 0.65 -7.60 0.35z m368.10 -503.95 c0.05 -0.90 -0.15 -1.65 -0.40 -1.65 -0.25 0 -0.45 0.45 -0.45 0.95 0 0.55 -0.10 1.30 -0.25 1.70 -0.15 0.35 0 0.70 0.35 0.70 0.40 0 0.70 -0.70 0.75 -1.70z"/>
    <path d="M512 769.25 c0 -3.40 0.10 -3.75 1 -3.75 0.90 0 1 0.35 1 3.75 0 3.40 -0.10 3.75 -1 3.75 -0.90 0 -1 -0.35 -1 -3.75z"/>
    <path d="M512 760.75 c0 -1.90 0.15 -2.25 1 -2.25 0.85 0 1 0.35 1 2.25 0 1.90 -0.15 2.25 -1 2.25 -0.85 0 -1 -0.35 -1 -2.25z"/>
    <path d="M512 752.75 c0 -2.90 0.10 -3.25 1 -3.25 0.90 0 1 0.35 1 3.25 0 2.90 -0.10 3.25 -1 3.25 -0.90 0 -1 -0.35 -1 -3.25z"/>
    <path d="M512 731 c0 -3.15 0.10 -3.50 1 -3.50 0.90 0 1 0.35 1 3.50 0 3.15 -0.10 3.50 -1 3.50 -0.90 0 -1 -0.35 -1 -3.50z"/>
    <path d="M512 725.25 c0 -1.40 0.20 -1.75 1 -1.75 0.80 0 1 0.35 1 1.75 0 1.40 -0.20 1.75 -1 1.75 -0.80 0 -1 -0.35 -1 -1.75z"/>
    <path d="M512 687.25 c0 -1.40 0.20 -1.75 1 -1.75 0.80 0 1 0.35 1 1.75 0 1.40 -0.20 1.75 -1 1.75 -0.80 0 -1 -0.35 -1 -1.75z"/>
    <path d="M512 680 c0 -4.15 0.05 -4.50 1 -4.50 0.95 0 1 0.35 1 4.50 0 4.15 -0.05 4.50 -1 4.50 -0.95 0 -1 -0.35 -1 -4.50z"/>
    <path d="M512 671.05 c0 -1.10 -0.35 -2.30 -0.75 -2.75 -0.40 -0.40 -0.75 -1.50 -0.75 -2.40 l0 -1.65 1.60 1.70 c1.25 1.35 1.60 2.20 1.80 4.35 0.20 2.50 0.15 2.70 -0.85 2.70 -0.90 0 -1.05 -0.30 -1.05 -1.95z"/>
    <path d="M826.55 388 c-0.50 -1.10 -1 -1.85 -1.20 -1.70 -0.15 0.15 -0.15 -0.15 0 -0.75 0.35 -1.40 0.50 -1.35 1.15 0.85 0.35 1 0.95 2.25 1.40 2.75 0.50 0.55 0.55 0.85 0.15 0.85 -0.35 0 -1 -0.90 -1.50 -2z"/>
    <path d="M834.35 373.65 c-0.55 -0.50 -0.40 -2.65 0.15 -2.65 0.30 0 0.50 0.70 0.50 1.50 0 1.55 -0.10 1.75 -0.65 1.15z"/>
    <path d="M839 361.75 c0 -0.75 0.20 -1.20 0.50 -1 0.30 0.15 0.50 0.60 0.50 1 0 0.40 -0.20 0.85 -0.50 1 -0.30 0.20 -0.50 -0.25 -0.50 -1z"/>
    <path d="M842 351 c0 -0.65 1.40 -1.25 1.90 -0.80 0.15 0.20 0 0.55 -0.40 0.80 -1 0.65 -1.50 0.60 -1.50 0z"/>
  </g>
  <g fill="#094dca">
    <path d="M511.20 773.85 c-1.35 -1.45 -3.10 -3.10 -3.95 -3.70 -1.45 -1.05 -17.40 -17 -48.55 -48.60 -8.50 -8.60 -39.20 -39.50 -68.20 -68.60 -81.80 -82 -126.65 -127.15 -133.55 -134.20 -3.45 -3.60 -8.20 -8.20 -10.55 -10.25 -2.40 -2.05 -4.35 -4 -4.35 -4.25 -0.05 -0.30 42.85 -43.35 95.35 -95.75 52.45 -52.35 113.15 -113 134.85 -134.75 l39.50 -39.60 4.65 4.55 c2.55 2.50 26.30 26.15 52.80 52.55 26.50 26.40 51 50.75 54.40 54.10 l6.25 6.15 -6.55 6.40 c-3.60 3.55 -8.80 8.55 -11.50 11.15 -2.75 2.60 -5.55 5.35 -6.25 6.15 -3.40 3.85 -14.80 15.30 -15.30 15.30 -0.25 0 -3.20 2.80 -6.45 6.25 -3.30 3.45 -6.30 6.25 -6.75 6.25 -0.40 0 -14.65 -14 -31.60 -31.10 l-30.85 -31.10 -2.40 1.95 c-3.85 3.15 -162.20 161.40 -162.20 162.10 0 0.35 0.75 0.95 1.65 1.30 1.60 0.70 158.55 157.35 161.05 160.75 l1.20 1.65 0 54 c0 29.65 -0.05 53.95 -0.15 53.95 -0.05 0 -1.20 -1.20 -2.55 -2.65z"/>
    <path d="M139.15 530.50 c0 -1.80 0.10 -2.50 0.20 -1.60 0.10 0.85 0.10 2.35 0 3.25 -0.10 0.85 -0.20 0.15 -0.20 -1.65z"/>
    <path d="M175.65 515 c0 -1.80 0.10 -2.50 0.20 -1.60 0.10 0.85 0.10 2.35 0 3.25 -0.10 0.85 -0.20 0.15 -0.20 -1.65z"/>
    <path d="M175.65 507.25 c0 -1.65 0.10 -2.25 0.20 -1.35 0.10 0.90 0.10 2.25 0 3 -0.10 0.75 -0.20 0 -0.20 -1.65z"/>
    <path d="M139 488.35 c0 -2.40 0.20 -4.35 0.40 -4.35 0.45 0 0.20 8.05 -0.20 8.45 -0.10 0.10 -0.20 -1.75 -0.20 -4.10z"/>
    <path d="M140.05 475.30 c-0.05 -1.30 0.10 -1.85 0.45 -1.50 0.30 0.30 0.30 1.05 0.05 1.95 -0.45 1.50 -0.45 1.50 -0.50 -0.45z"/>
    <path d="M141.10 465.50 c0 -0.95 0.10 -1.35 0.25 -0.85 0.10 0.45 0.10 1.25 0 1.75 -0.15 0.45 -0.25 0.05 -0.25 -0.90z"/>
    <path d="M141.85 460.25 c0.15 -1.10 0.35 -2.10 0.45 -2.20 0.40 -0.45 0.10 2.25 -0.30 3.20 -0.35 0.70 -0.40 0.40 -0.15 -1z"/>
    <path d="M149.25 420 c0.65 -3 1.30 -4 1 -1.50 -0.15 1.25 -0.55 2.50 -0.85 2.75 -0.35 0.35 -0.40 -0.05 -0.15 -1.25z"/>
    <path d="M172.50 353.75 c0 -0.25 0.45 -1.15 1 -2 0.55 -0.80 1 -1.25 1 -1 0 0.30 -0.45 1.20 -1 2 -0.55 0.85 -1 1.30 -1 1z"/>
    <path d="M180.70 337.20 c0.15 -0.45 0.30 -0.90 0.30 -1 0 -0.10 0.20 -0.20 0.45 -0.20 0.25 0 0.35 0.45 0.20 1 -0.15 0.55 -0.50 1 -0.75 1 -0.30 0 -0.35 -0.35 -0.20 -0.80z"/>
    <path d="M199.50 305.50 c0.65 -1.15 1 -1.30 1 -0.30 0 0.40 -0.35 0.80 -0.75 1 -0.65 0.20 -0.70 0.10 -0.25 -0.70z"/>
  </g>
</svg>

